<?xml version="1.0" standalone="no"?>
<!DOCTYPE svg PUBLIC "-//W3C//DTD SVG 1.1//EN" "http://www.w3.org/Graphics/SVG/1.1/DTD/svg11.dtd"><svg xmlns="http://www.w3.org/2000/svg" style="background-color:#FFF" width="522" height="187"><path stroke="black" fill="none" stroke-width="1" d="M393.1, 54L404.52, 54L404.52, 132L393.1, 132L393.1, 54"/><path stroke="black" fill="none" stroke-width="1" d="M289.88, 133.26L286.64, 133.06L283.68, 132.47L280.99, 131.49L278.59, 130.11L277.62, 129.4L277.62, 132L267.55, 132L267.55, 55.26L279.05, 55.26L279.05, 88.14L281.28, 86.94L283.73, 86.09L286.4, 85.58L289.29, 85.41L292.44, 85.61L295.38, 86.19L298.1, 87.16L300.62, 88.52L302.9, 90.22L304.9, 92.2L306.63, 94.48L308.09, 97.04L309.27, 99.82L310.11, 102.8L310.61, 105.97L310.78, 109.34L310.61, 112.65L310.12, 115.79L309.29, 118.76L308.14, 121.55L306.7, 124.12L305.01, 126.4L303.05, 128.4L300.83, 130.11L298.39, 131.49L295.74, 132.47L292.91, 133.06L289.88, 133.26"/><path stroke="black" fill="none" stroke-width="1" d="M278.63, 102.12L279.21, 100.65L279.93, 99.36L280.8, 98.24L281.82, 97.29L283.02, 96.54L284.38, 96L285.91, 95.68L287.61, 95.57L289.44, 95.69L291.09, 96.04L292.56, 96.63L293.87, 97.46L295.02, 98.46L296.02, 99.63L296.85, 100.96L297.52, 102.45L298.4, 105.73L298.69, 109.34L298.41, 112.99L297.56, 116.3L296.92, 117.78L296.12, 119.09L295.18, 120.25L294.08, 121.26L292.82, 122.06L291.39, 122.64L289.79, 122.99L288.03, 123.1L286.22, 122.99L284.59, 122.67L283.15, 122.13L281.9, 121.38L280.85, 120.43L279.95, 119.31L279.21, 118.02L278.63, 116.56L277.88, 113.2L277.62, 109.34L277.88, 105.48L278.63, 102.12"/><path stroke="black" fill="none" stroke-width="1" d="M249.5, 105.22L249.37, 103.1L248.97, 101.24L248.3, 99.62L247.36, 98.26L246.21, 97.16L244.85, 96.37L243.29, 95.9L241.53, 95.74L239.29, 96.02L237.37, 96.87L235.8, 98.19L234.6, 99.98L233.88, 102.11L233.64, 104.55L233.64, 132L222.22, 132L222.22, 105.22L222.09, 103.1L221.69, 101.24L221.02, 99.62L220.08, 98.26L218.93, 97.16L217.57, 96.37L216.01, 95.9L214.25, 95.74L212.55, 95.89L211.03, 96.36L209.68, 97.13L208.5, 98.21L207.56, 99.52L206.89, 101.02L206.49, 102.69L206.36, 104.55L206.36, 132L194.86, 132L194.86, 86.67L204.93, 86.67L204.93, 91.64L207.12, 89.42L209.76, 87.64L211.7, 86.74L213.76, 86.1L215.92, 85.71L218.19, 85.58L220.74, 85.72L223.04, 86.15L225.1, 86.86L226.92, 87.85L228.27, 88.85L229.46, 89.98L230.49, 91.23L231.37, 92.62L232.53, 91.11L233.85, 89.76L235.33, 88.58L236.95, 87.6L238.87, 86.71L240.89, 86.09L243.01, 85.71L245.22, 85.58L248.87, 85.87L252.03, 86.74L254.72, 88.18L256.93, 90.2L258.68, 92.66L259.92, 95.49L260.67, 98.67L260.92, 102.2L260.92, 132L249.5, 132L249.5, 105.22"/><path stroke="black" fill="none" stroke-width="1" d="M153.96, 131.54L152.37, 130.58L150.97, 129.49L149.75, 128.29L148.71, 126.96L147.13, 124.14L146.07, 121.21L145.43, 118.33L145.1, 115.72L144.98, 113.58L144.94, 112.11L144.94, 86.67L156.52, 86.67L156.52, 108.08L156.56, 109.85L156.69, 112.06L157.03, 114.47L157.74, 116.89L158.89, 119.12L160.59, 120.96L161.7, 121.68L163.01, 122.19L164.53, 122.5L166.26, 122.6L167.78, 122.48L169.4, 122.14L171.03, 121.47L172.55, 120.37L173.88, 118.73L174.95, 116.47L175.37, 115.07L175.67, 113.47L175.85, 111.67L175.91, 109.67L175.91, 86.67L187.41, 86.67L187.41, 132L177.34, 132L177.34, 127.33L175.61, 129L173.69, 130.45L171.36, 131.71L168.74, 132.62L165.84, 133.16L162.65, 133.34L160.11, 133.23L157.81, 132.89L155.76, 132.33L153.96, 131.54"/><path stroke="black" fill="none" stroke-width="1" d="M315.82, 86.67L325.89, 86.67L325.89, 93.97L327.15, 92.04L328.8, 90.27L330.76, 88.86L332.49, 87.95L334.33, 87.3L336.3, 86.83L338.31, 86.59L340.37, 86.53L342.43, 86.67L342.43, 97.33L340.38, 96.95L338.02, 96.96L335.66, 97.32L333.53, 98.09L331.67, 99.17L330.13, 100.57L328.91, 102.22L328.03, 104.17L327.5, 106.37L327.32, 108.83L327.32, 132L315.82, 132L315.82, 86.67"/><path stroke="black" fill="none" stroke-width="1" d="M366.46, 133.26L363.08, 133.07L359.9, 132.51L356.93, 131.58L354.17, 130.28L351.66, 128.63L349.44, 126.7L347.51, 124.5L345.86, 122.01L344.55, 119.27L343.62, 116.35L343.06, 113.23L342.88, 109.92L343.06, 106.33L343.61, 102.98L344.53, 99.87L345.81, 97L347.42, 94.4L349.31, 92.12L351.47, 90.14L353.91, 88.48L356.59, 87.14L359.46, 86.18L362.53, 85.61L365.79, 85.41L369.22, 85.62L372.39, 86.25L375.29, 87.3L377.92, 88.77L380.25, 90.62L382.26, 92.81L383.95, 95.34L385.31, 98.21L386.31, 101.39L386.92, 104.84L387.15, 108.55L386.98, 112.53L355.16, 112.53L355.52, 114.47L356.06, 116.22L356.78, 117.79L357.69, 119.16L359.24, 120.66L361.1, 121.74L363.29, 122.38L365.79, 122.6L367.41, 122.51L368.91, 122.23L370.28, 121.77L371.54, 121.13L372.67, 120.31L373.65, 119.34L374.49, 118.19L375.19, 116.89L386.61, 120.17L385.14, 123.1L383.3, 125.68L381.09, 127.92L378.51, 129.82L375.69, 131.32L372.75, 132.4L369.67, 133.04L366.46, 133.26"/><path stroke="black" fill="none" stroke-width="1" d="M373.47, 98.38L374.14, 99.48L374.69, 100.79L375.12, 102.32L375.43, 104.05L355.46, 104.05L356.35, 101.19L357.69, 98.89L359.27, 97.33L361.23, 96.21L363.57, 95.54L366.29, 95.32L368.62, 95.51L370.59, 96.08L372.2, 97.04L373.47, 98.38"/><path stroke="black" fill="none" stroke-width="1" d="M413.74, 132L413.74, 54L425.16, 54L425.16, 132L413.74, 132"/><path stroke="black" fill="none" stroke-width="1" d="M437.87, 131.41L436.29, 130.39L434.91, 129.22L433.73, 127.89L432.75, 126.42L432, 124.8L431.46, 123.11L431.13, 121.34L431.03, 119.49L431.27, 116.48L431.99, 113.74L433.25, 111.3L435.1, 109.17L436.28, 108.2L437.65, 107.32L439.2, 106.52L440.93, 105.81L443.69, 104.94L446.93, 104.17L450.65, 103.48L454.82, 102.83L460.32, 102L460.08, 100.68L459.69, 99.52L459.16, 98.54L458.48, 97.71L457.35, 96.88L455.89, 96.29L454.12, 95.94L452.01, 95.82L449.44, 96.13L446.77, 97.04L445.5, 97.77L444.45, 98.73L443.59, 99.93L442.95, 101.36L432.62, 98.09L433.67, 95.41L435.1, 92.99L436.9, 90.83L439.08, 88.94L441.67, 87.4L444.69, 86.3L448.14, 85.63L452.01, 85.41L454.93, 85.53L457.68, 85.88L460.26, 86.45L462.67, 87.26L464.86, 88.35L466.76, 89.78L468.39, 91.54L469.72, 93.64L470.79, 96.16L471.32, 98.68L471.51, 101.34L471.57, 104.3L471.57, 132L461.58, 132L461.58, 126.44L460.21, 127.93L458.79, 129.23L457.33, 130.34L455.83, 131.24L453.79, 132.13L451.5, 132.76L448.95, 133.13L446.14, 133.26L443.79, 133.14L441.64, 132.8L439.66, 132.22L437.87, 131.41"/><path stroke="black" fill="none" stroke-width="1" d="M453.86, 123.19L451.47, 124.01L448.57, 124.28L446.73, 124.13L445.17, 123.69L443.9, 122.98L442.95, 122.01L442.38, 120.77L442.19, 119.32L442.31, 118.24L442.65, 117.27L443.28, 116.39L444.16, 115.59L445.37, 114.82L446.89, 114.12L448.48, 113.6L450.29, 113.11L452.53, 112.63L455.37, 112.11L457.59, 111.7L460.21, 111.25L460.07, 113.95L459.76, 116.24L459.06, 118.23L458.39, 119.31L457.3, 120.63L455.81, 121.98L453.86, 123.19"/><path stroke="black" fill="none" stroke-width="1" d="M81.94, 87L81.94, 65.5L81.75, 64.06L81.2, 62.75L80.33, 61.62L79.19, 60.74L77.78, 60.16L76.35, 59.99L74.97, 60.2L73.69, 60.74L72.58, 61.57L71.71, 62.67L71.14, 63.99L70.94, 65.5L60.94, 65.5L61.25, 62.38L62.16, 59.47L63.58, 56.83L65.48, 54.54L67.77, 52.65L70.4, 51.22L73.31, 50.31L76.44, 50L79.56, 50.31L82.47, 51.22L85.1, 52.65L87.4, 54.54L89.29, 56.83L90.72, 59.47L91.62, 62.38L91.94, 65.5L91.94, 87L123.94, 87L123.94, 100.5L123.75, 104.23L123.2, 107.86L122.3, 111.35L121.07, 114.71L119.53, 117.9L117.7, 120.91L115.6, 123.72L113.25, 126.31L110.65, 128.67L107.84, 130.77L104.83, 132.59L101.64, 134.13L98.29, 135.36L94.79, 136.26L91.17, 136.81L87.44, 137L83.7, 136.81L80.08, 136.26L76.58, 135.36L73.23, 134.13L70.04, 132.59L67.03, 130.77L64.22, 128.67L61.63, 126.31L59.27, 123.72L57.17, 120.91L55.34, 117.9L53.8, 114.71L52.58, 111.35L51.68, 107.86L51.12, 104.23L50.94, 100.5L50.94, 87L81.94, 87"/><path stroke="black" fill="none" stroke-width="1" d="M81.94, 97L81.94, 116L91.94, 116L91.94, 97L113.94, 97L113.94, 100.5L113.8, 103.21L113.4, 105.84L112.75, 108.38L111.85, 110.82L110.74, 113.13L109.41, 115.32L107.89, 117.36L106.18, 119.24L104.29, 120.95L102.25, 122.47L100.07, 123.8L97.75, 124.92L95.32, 125.81L92.78, 126.46L90.15, 126.86L87.44, 127L84.73, 126.86L82.1, 126.46L79.56, 125.81L77.12, 124.92L74.81, 123.8L72.62, 122.47L70.58, 120.95L68.7, 119.24L66.99, 117.36L65.46, 115.32L64.14, 113.13L63.02, 110.82L62.13, 108.38L61.48, 105.84L61.07, 103.21L60.94, 100.5L60.94, 97L81.94, 97"/></svg>