<svg class="svg-icon" style="width: 1em; height: 1em;vertical-align: middle;fill: currentColor;overflow: hidden;" viewBox="0 0 1024 1024" version="1.1" xmlns="http://www.w3.org/2000/svg"><path d="M497.9712 297.8816l-4.1728 32.2816h39.8848l-4.1728-32.2816a15.8976 15.8976 0 1 0-31.5392 0zM529.8944 678.1696l-0.384-145.6896a13.4144 13.4144 0 0 0-13.6448-13.3632l-2.5856 0.0512a13.4144 13.4144 0 0 0-13.184 13.4144v145.5872c0 21.5808 0 35.7376-25.3184 35.7376-16.1792 0-23.5264-7.8336-25.4976-26.4704a13.4912 13.4912 0 0 0-13.2864-12.2624 13.4656 13.4656 0 0 0-13.4144 14.6688c2.9696 29.1584 16.1792 50.1504 51.4816 50.1504 38.7328 0 55.8336-25.3184 55.8336-61.824zM479.4624 351.0784c-93.056 9.2416-165.0688 65.6384-208.5376 151.8848h8.9088c24.6016-20.096 37.248-24.6016 58.112-24.6016 24.7296 0 39.2704 7.9616 51.968 19.4816 7.0656-72.576 58.0096-122.5216 89.5488-146.7648z" fill="#333333" /><path d="M502.8352 493.9264v-138.3936c-26.88 19.1744-83.9168 67.8144-92.928 139.9808 14.3872-11.3408 27.0592-17.1264 46.8992-17.1264 20.608 0 34.56 6.2208 46.0288 15.5392zM548.0448 351.0784c93.056 9.2416 165.0688 65.6384 208.5376 151.8848h-8.9088c-24.6016-20.096-37.248-24.6016-58.112-24.6016-24.7296 0-39.2704 7.9616-51.968 19.4816-7.0656-72.576-58.0096-122.5216-89.5488-146.7648z" fill="#333333" /><path d="M524.672 493.9264v-138.3936c26.88 19.1744 83.9168 67.8144 92.928 139.9808-14.3872-11.3408-27.0592-17.1264-46.8992-17.1264-20.608 0-34.56 6.2208-46.0288 15.5392z" fill="#333333" /><path d="M512 933.4272c-33.1264 0-66.2528-3.9168-98.5088-11.6736a12.7744 12.7744 0 0 1-9.4464-15.4368 12.6976 12.6976 0 0 1 15.4624-9.472 396.288 396.288 0 0 0 92.4928 10.9568c218.24 0 395.8272-177.5616 395.8272-395.8272S730.24 116.1728 512 116.1728 116.1728 293.7344 116.1728 512c0 57.216 12.0832 112.5888 35.8656 164.6336a12.8256 12.8256 0 0 1-23.296 10.6496A418.8672 418.8672 0 0 1 90.5728 512c0-232.3712 189.056-421.4272 421.4272-421.4272S933.4272 279.6288 933.4272 512 744.3712 933.4272 512 933.4272z" fill="#333333" /><path d="M160.0256 791.8336c-33.7664 0-61.2608-27.4688-61.2608-61.2608s27.4688-61.2608 61.2608-61.2608 61.2608 27.4688 61.2608 61.2608-27.4944 61.2608-61.2608 61.2608z m0-96.9216c-19.6608 0-35.6608 16-35.6608 35.6608s16 35.6608 35.6608 35.6608 35.6608-16 35.6608-35.6608-16-35.6608-35.6608-35.6608z" fill="#333333" /></svg>